# xmcd CD database file
#
# Track frame offsets:
#	150
#	28433
#	57318
#	80330
#	84911
#	111777
#	116788
#	138883
#	168859
#	198329
#	225549
#	250518
#	256081
#	285806
#
# Disc length: 4243 seconds
#
# Revision: 0
# Processed by: cddbd v1.5PL3 Copyright (c) Steve Scherf et al.
# Submitted via: CDex 1.51
#
DISCID=ab10910e
DTITLE=Mondo Grosso - Next Wave
DYEAR=2003
DGENRE=General Rock
TTITLE0=Blaze It Up
TTITLE1=Motormouth
TTITLE2=Waitin' For T
TTITLE3=Intermezzo Cosmo
TTITLE4=Everything Needs Love
TTITLE5=Intermezzo Earth
TTITLE6=Fight For Your Right
TTITLE7=Dancefloor Combat
TTITLE8=Graceful Ways
TTITLE9=Tornado
TTITLE10=Next Wave
TTITLE11=Intermezzo Sun
TTITLE12=Shinin'
TTITLE13=光
EXTD=YEAR: 2003
EXTT0=
EXTT1=
EXTT2=
EXTT3=
EXTT4=
EXTT5=
EXTT6=
EXTT7=
EXTT8=
EXTT9=
EXTT10=
EXTT11=
EXTT12=
EXTT13=
PLAYORDER=
